# xmcd
#
# Track frame offsets: 
#        150
#        14852
#        27797
#        38657
#        51450
#        67486
#        80724
#        93440
#        112735
#        129176
#        137466
#        150684
#        167871
#        181955
#        192943
#        207426
#        227321
#        239272
#        254476
#
# Disc length: 3554 seconds
#
# Revision: 1
# Processed by: cddbd v1.5.2PL0 Copyright (c) Steve Scherf et al.
# Submitted via: ExactAudioCopy v1.3
#
DISCID=060de013
DTITLE=Michel Teló - BEM SERTANEJO
DYEAR=2014
DGENRE=SERTANEJO
TTITLE0=part. Gusttavo Lima, Luan Santana, Jorge e Mateus, Chitãozinho
TTITLE0=e Xororó - SAUDADE DE MINHA TERRA
TTITLE1=part. Almir Sater e Jads e Jadson - CHALANA
TTITLE2=Part. Jorge e Matheus - NO MESMO OLHAR
TTITLE3=part. Chitãozinho e Xororó - FIO DE CABELO
TTITLE4=part. Daniel, Rick - POT PURRI: PÁGINA DE AMIGOS-HOJE EU SEI
TTITLE5=Bruno e Marrone, César Menotti e Fabiano - AMARGURADO
TTITLE6=part. Zezé Di Camargo e Luciano - AINDA ONTEM CHOREI DE SAUDAD
TTITLE6=E
TTITLE7=part. Milionário e José Rico - SONHEI COM VOCÊ
TTITLE8=part. Victor e leo, Fernando e Sorocaba - FAZENDA SÃO FRANCISC
TTITLE8=O
TTITLE9=part. Chitãozinho e Xororoó - MORENINHA LINDA
TTITLE10=Part. Paula Fernandes - ÍNDIA
TTITLE11=Part. Almir Sater, Jads e Jadson - A SAUDADE É UMA ETRADA LON
TTITLE11=GA
TTITLE12=part. Victor e Leo, Fernando e Sorocaba - CHICO MINEIRO
TTITLE13=part. Sérgio Reis - PINGA NE MIM
TTITLE14=part. Leonardo e Eduardo Costa - TELEFONE MUDO
TTITLE15=part. Daniel - MÁGOA DE BOIADEIRO
TTITLE16=part Leonardo e Eduardo Costa - PEDAÇO DA MINHA VIDA
TTITLE17=part. Gusttavo Lima - IMPLORANDO PRA TRAIR
TTITLE18=ATÉ O DIA CLAREAR
EXTD=
EXTT0=
EXTT1=
EXTT2=
EXTT3=
EXTT4=
EXTT5=
EXTT6=
EXTT7=
EXTT8=
EXTT9=
EXTT10=
EXTT11=
EXTT12=
EXTT13=
EXTT14=
EXTT15=
EXTT16=
EXTT17=
EXTT18=
PLAYORDER=
